
<svg 
xmlns="http://www.w3.org/2000/svg"
className="h-full w-full"
 viewBox="0 0 1246.000000 1280.000000"
 preserveAspectRatio="xMidYMid meet">

<g transform="translate(0.000000,1280.000000) scale(0.100000,-0.100000)"
fill="#000000" stroke="none">
<path d="M6755 12784 c-22 -8 -48 -23 -59 -33 -16 -17 -21 -17 -45 -5 -18 10
-42 12 -81 8 -76 -9 -99 -19 -146 -65 -46 -45 -61 -48 -185 -35 l-75 8 -48
-41 c-41 -35 -50 -39 -68 -30 -13 7 -39 9 -67 4 -64 -9 -75 -9 -164 0 l-78 8
-92 -96 c-51 -52 -99 -97 -109 -100 -9 -3 -24 0 -34 8 -16 11 -20 10 -29 -8
-20 -40 -62 -61 -128 -64 -65 -4 -66 -4 -153 55 -46 32 -53 33 -112 28 -84 -7
-106 3 -136 63 -44 85 -83 104 -236 115 -77 5 -95 11 -188 58 -89 45 -111 53
-153 51 -68 -3 -137 -42 -182 -104 -21 -27 -48 -56 -62 -65 -25 -16 -28 -15
-85 15 -78 40 -105 39 -166 -5 -48 -35 -50 -35 -119 -29 -102 10 -116 8 -151
-26 -36 -35 -53 -71 -84 -176 -27 -95 -47 -110 -126 -94 -51 10 -62 9 -118
-13 -33 -14 -81 -30 -105 -36 -44 -12 -85 -46 -125 -105 -10 -15 -33 -36 -50
-46 -42 -25 -64 -65 -79 -146 l-12 -68 -58 -30 c-66 -35 -95 -71 -139 -176
-26 -61 -32 -91 -36 -174 -4 -97 -6 -101 -38 -138 -25 -27 -34 -47 -34 -71 0
-60 -34 -67 -173 -35 -53 12 -62 12 -88 -4 -63 -37 -86 -47 -127 -58 -34 -8
-50 -19 -75 -56 -27 -38 -47 -53 -122 -88 -58 -27 -101 -54 -119 -76 -44 -53
-53 -55 -94 -22 -77 62 -103 66 -184 28 -32 -15 -71 -25 -100 -25 -67 0 -97
-14 -114 -55 -17 -42 -44 -60 -108 -75 -63 -14 -84 -25 -122 -65 -18 -19 -56
-42 -93 -55 -67 -25 -75 -34 -86 -95 -11 -60 -37 -88 -115 -130 -91 -47 -110
-76 -110 -167 0 -65 0 -66 -31 -77 -18 -6 -40 -11 -50 -11 -41 0 -59 -35 -59
-115 0 -86 -11 -115 -50 -138 -40 -24 -65 -70 -84 -155 -9 -41 -30 -101 -47
-134 -47 -93 -41 -145 25 -228 l36 -45 -22 -19 c-13 -10 -30 -23 -39 -30 -54
-39 -63 -111 -24 -194 30 -65 31 -72 5 -72 -61 0 -151 -90 -176 -177 -26 -91
-38 -108 -97 -136 -62 -29 -92 -63 -108 -120 -14 -54 -4 -104 32 -149 16 -20
29 -43 29 -50 0 -7 -18 -29 -39 -48 -45 -41 -67 -101 -57 -154 4 -19 25 -59
47 -88 48 -64 47 -74 -13 -178 -37 -64 -43 -82 -42 -130 0 -66 26 -119 81
-171 45 -44 77 -61 158 -84 62 -18 141 -54 188 -87 53 -37 29 -86 -53 -108
-93 -25 -120 -54 -120 -128 -1 -45 -15 -71 -57 -107 -38 -31 -69 -119 -58
-163 3 -14 24 -45 44 -67 29 -32 40 -53 45 -91 12 -79 40 -129 120 -213 l76
-80 0 -59 c0 -116 63 -257 133 -301 39 -24 150 -51 213 -51 55 0 79 -20 79
-65 0 -35 2 -37 55 -57 33 -12 94 -23 155 -27 84 -6 110 -12 160 -38 33 -16
77 -33 99 -36 57 -9 129 10 177 46 89 68 90 68 158 64 72 -4 85 -14 103 -87 9
-33 27 -60 72 -107 52 -52 70 -64 121 -77 86 -24 107 -37 131 -81 11 -22 34
-48 51 -58 35 -20 164 -47 228 -47 44 0 58 -8 130 -75 93 -87 204 -109 287
-56 25 16 49 34 53 40 4 8 38 10 111 5 102 -7 104 -7 168 25 75 37 121 86 164
174 38 80 56 95 143 118 92 24 122 17 227 -55 43 -30 101 -66 130 -80 29 -15
71 -43 93 -63 34 -31 40 -41 37 -72 -3 -31 -9 -38 -53 -60 -35 -18 -55 -37
-67 -61 -9 -19 -31 -65 -48 -102 -37 -80 -84 -124 -192 -179 -85 -43 -93 -51
-80 -76 14 -26 127 -109 192 -141 53 -26 61 -27 210 -27 179 0 241 14 314 70
l45 34 59 -82 c165 -228 235 -370 371 -749 94 -262 109 -369 55 -405 -33 -21
-83 -12 -218 41 -61 24 -127 47 -146 51 -19 4 -49 14 -65 22 -29 14 -39 12
-140 -17 -175 -50 -228 -87 -396 -275 -125 -141 -169 -174 -283 -210 -200 -65
-321 -159 -391 -307 -49 -102 -59 -168 -39 -238 9 -30 26 -95 39 -143 14 -51
40 -117 63 -155 110 -186 136 -262 152 -445 16 -186 45 -241 178 -348 42 -34
118 -104 168 -155 99 -99 134 -126 134 -99 0 8 15 45 34 82 19 38 37 88 41
113 17 107 63 170 236 318 135 115 202 190 245 276 40 80 43 123 14 196 -28
72 -26 101 13 148 59 71 126 188 138 240 8 41 7 63 -5 112 -27 105 -114 236
-199 298 -73 54 -81 66 -67 92 26 49 227 115 300 99 74 -17 226 -96 258 -135
40 -48 49 -85 72 -299 51 -472 250 -1804 305 -2045 10 -41 15 -107 13 -180 -3
-233 59 -322 288 -416 95 -38 156 -46 249 -31 48 8 51 7 94 -30 40 -34 136
-88 385 -217 76 -40 83 -41 170 -40 79 1 104 6 186 36 134 51 168 54 270 28
115 -30 198 -24 303 20 58 24 86 42 110 72 36 45 40 45 142 7 129 -48 304 -33
444 37 80 40 128 89 171 174 40 79 58 160 75 339 8 82 21 193 29 247 9 54 23
169 31 254 33 316 63 439 139 553 44 67 61 82 144 132 50 30 69 48 75 70 5 17
15 42 21 56 15 29 5 45 -48 87 -36 28 -69 28 -107 0 -22 -17 -48 -23 -99 -26
-39 -2 -70 0 -70 5 0 26 63 496 81 598 58 340 178 845 223 942 41 85 102 154
171 194 65 37 108 37 168 -1 25 -16 82 -48 125 -70 101 -53 176 -58 264 -18
70 32 159 97 192 140 35 47 107 173 136 238 38 86 65 117 150 166 97 56 130
92 130 143 0 67 -56 102 -179 109 -133 7 -310 -46 -398 -119 -26 -21 -58 -39
-71 -39 -12 0 -41 17 -65 39 -56 51 -83 56 -152 30 -80 -30 -120 -74 -135
-146 -7 -32 -16 -68 -21 -81 -23 -58 -148 -84 -203 -41 -22 18 -26 28 -26 76
0 44 11 83 49 177 26 67 51 139 55 161 4 22 16 56 26 75 10 19 22 53 26 75 9
38 12 40 79 65 93 35 122 55 137 97 l12 34 51 -8 c27 -4 82 -8 120 -8 129 0
185 54 280 269 27 60 65 134 85 165 38 58 104 111 140 111 42 0 59 18 66 70 8
60 24 76 24 25 0 -62 21 -176 42 -224 23 -56 69 -105 166 -178 39 -30 93 -81
119 -114 53 -68 113 -102 213 -119 76 -14 96 -23 174 -84 45 -36 67 -46 95
-46 46 0 128 39 165 79 35 36 66 47 164 56 53 5 81 13 105 31 64 47 74 49 125
31 54 -19 81 -21 114 -7 13 5 41 14 64 20 58 14 133 82 131 117 -2 29 -3 29
105 58 70 19 113 54 125 102 4 20 17 41 28 47 105 59 122 74 133 118 13 52 39
78 110 111 83 39 92 50 92 121 0 96 4 103 84 143 167 84 212 126 253 240 13
37 35 77 48 89 14 13 25 34 25 48 0 13 16 57 35 97 43 89 44 133 10 235 -30
90 -31 123 -5 174 29 58 26 116 -10 169 -35 51 -35 52 -11 111 16 40 17 49 5
84 -9 26 -14 81 -13 160 0 67 -3 130 -7 141 -4 11 -26 47 -49 80 -59 85 -66
99 -92 204 -13 52 -31 103 -40 114 -10 10 -50 34 -90 52 -68 31 -73 36 -73 65
0 17 9 48 19 68 10 20 24 56 30 80 12 45 10 43 116 87 50 20 60 36 91 138 19
65 23 93 18 143 -6 59 -5 65 25 105 39 54 39 84 0 161 -25 49 -29 68 -24 97 4
20 9 102 12 182 l4 147 -40 98 c-22 55 -50 137 -61 183 -32 128 -60 174 -174
286 -58 57 -114 122 -130 151 -24 44 -39 58 -100 90 -62 34 -74 45 -96 91 -40
80 -64 100 -141 117 l-27 6 26 62 c40 101 40 132 -4 212 -36 69 -37 71 -29
145 16 149 11 171 -57 253 -21 25 -54 82 -74 125 -19 43 -40 89 -47 102 -33
67 -173 133 -312 146 -100 9 -105 12 -105 46 0 17 -6 32 -15 35 -9 4 -15 19
-15 40 0 29 -3 34 -24 34 -14 0 -28 5 -32 11 -5 8 -10 6 -16 -5 -6 -10 -22
-16 -44 -16 -29 0 -46 11 -103 64 -37 35 -94 76 -125 91 -44 21 -69 42 -104
88 -83 109 -80 107 -198 107 l-104 0 -40 36 c-43 39 -96 56 -144 47 -40 -8
-86 -31 -86 -43 0 -21 -19 -9 -39 24 -28 45 -41 48 -98 26 -26 -11 -66 -22
-87 -25 -22 -4 -48 -16 -59 -29 l-20 -23 -48 33 c-85 57 -123 53 -217 -17
l-42 -33 -43 41 c-45 44 -37 43 -135 12 -27 -9 -38 -7 -59 6 -34 23 -116 16
-174 -14 -26 -14 -82 -29 -139 -37 -90 -13 -96 -15 -126 -51 -39 -46 -53 -41
-94 32 -39 69 -57 80 -110 64 -38 -12 -44 -11 -56 6 -8 10 -14 29 -14 41 0 36
-37 73 -81 80 -60 10 -86 36 -99 98 -13 63 -32 83 -119 125 -35 17 -84 51
-108 76 -25 25 -73 58 -107 74 -65 31 -89 53 -124 111 -26 44 -88 80 -137 80
-49 0 -69 12 -135 81 -49 53 -60 59 -95 59 -68 0 -86 10 -105 56 -24 55 -79
92 -149 101 -44 5 -57 2 -81 -15 l-29 -22 -52 59 c-74 84 -104 94 -184 65z"/>
</g>
</svg>
